<mxfile host="Electron" modified="2024-02-22T03:24:02.535Z" agent="Mozilla/5.0 (Windows NT 10.0; Win64; x64) AppleWebKit/537.36 (KHTML, like Gecko) draw.io/23.1.5 Chrome/120.0.6099.109 Electron/28.1.0 Safari/537.36" etag="JnaKixdaoFEs6umONKUv" version="23.1.5" type="device" pages="4">
  <diagram name="Session" id="VmOSJPbwmUOOubiUnB9-">
    <mxGraphModel dx="782" dy="584" grid="1" gridSize="10" guides="1" tooltips="1" connect="1" arrows="1" fold="1" page="1" pageScale="1" pageWidth="850" pageHeight="1100" math="0" shadow="0">
      <root>
        <mxCell id="0" />
        <mxCell id="1" parent="0" />
        <mxCell id="4UGIQ3XWcUC0EGN_N2X9-2" value="get session" style="html=1;align=left;spacingLeft=2;endArrow=block;rounded=0;edgeStyle=orthogonalEdgeStyle;curved=0;rounded=0;" parent="1" edge="1">
          <mxGeometry relative="1" as="geometry">
            <mxPoint x="425" y="150" as="sourcePoint" />
            <Array as="points">
              <mxPoint x="455" y="180" />
            </Array>
            <mxPoint x="430" y="180" as="targetPoint" />
          </mxGeometry>
        </mxCell>
        <mxCell id="6zFAuJA5lrAGqabXl2fa-3" value=":Server" style="shape=umlLifeline;perimeter=lifelinePerimeter;whiteSpace=wrap;html=1;container=1;dropTarget=0;collapsible=0;recursiveResize=0;outlineConnect=0;portConstraint=eastwest;newEdgeStyle={&quot;curved&quot;:0,&quot;rounded&quot;:0};size=40;" parent="1" vertex="1">
          <mxGeometry x="360" y="40" width="130" height="450" as="geometry" />
        </mxCell>
        <mxCell id="6zFAuJA5lrAGqabXl2fa-11" value="" style="html=1;points=[[0,0,0,0,5],[0,1,0,0,-5],[1,0,0,0,5],[1,1,0,0,-5]];perimeter=orthogonalPerimeter;outlineConnect=0;targetShapes=umlLifeline;portConstraint=eastwest;newEdgeStyle={&quot;curved&quot;:0,&quot;rounded&quot;:0};" parent="6zFAuJA5lrAGqabXl2fa-3" vertex="1">
          <mxGeometry x="60" y="80" width="10" height="350" as="geometry" />
        </mxCell>
        <mxCell id="6zFAuJA5lrAGqabXl2fa-2" value=":Client" style="shape=umlLifeline;perimeter=lifelinePerimeter;whiteSpace=wrap;html=1;container=1;dropTarget=0;collapsible=0;recursiveResize=0;outlineConnect=0;portConstraint=eastwest;newEdgeStyle={&quot;curved&quot;:0,&quot;rounded&quot;:0};" parent="1" vertex="1">
          <mxGeometry x="200" y="40" width="130" height="450" as="geometry" />
        </mxCell>
        <mxCell id="6zFAuJA5lrAGqabXl2fa-4" value="" style="html=1;points=[[0,0,0,0,5],[0,1,0,0,-5],[1,0,0,0,5],[1,1,0,0,-5]];perimeter=orthogonalPerimeter;outlineConnect=0;targetShapes=umlLifeline;portConstraint=eastwest;newEdgeStyle={&quot;curved&quot;:0,&quot;rounded&quot;:0};" parent="6zFAuJA5lrAGqabXl2fa-2" vertex="1">
          <mxGeometry x="60" y="90" width="10" height="340" as="geometry" />
        </mxCell>
        <mxCell id="6zFAuJA5lrAGqabXl2fa-5" value="opens" style="html=1;verticalAlign=bottom;endArrow=block;curved=0;rounded=0;entryX=0;entryY=0;entryDx=0;entryDy=5;" parent="6zFAuJA5lrAGqabXl2fa-2" target="6zFAuJA5lrAGqabXl2fa-4" edge="1">
          <mxGeometry x="0.0047" relative="1" as="geometry">
            <mxPoint x="-70" y="95" as="sourcePoint" />
            <mxPoint as="offset" />
          </mxGeometry>
        </mxCell>
        <mxCell id="6zFAuJA5lrAGqabXl2fa-9" value="User" style="shape=umlLifeline;perimeter=lifelinePerimeter;whiteSpace=wrap;html=1;container=1;dropTarget=0;collapsible=0;recursiveResize=0;outlineConnect=0;portConstraint=eastwest;newEdgeStyle={&quot;curved&quot;:0,&quot;rounded&quot;:0};participant=umlActor;size=40;" parent="1" vertex="1">
          <mxGeometry x="110" y="40" width="20" height="450" as="geometry" />
        </mxCell>
        <mxCell id="6zFAuJA5lrAGqabXl2fa-14" value="" style="html=1;points=[[0,0,0,0,5],[0,1,0,0,-5],[1,0,0,0,5],[1,1,0,0,-5]];perimeter=orthogonalPerimeter;outlineConnect=0;targetShapes=umlLifeline;portConstraint=eastwest;newEdgeStyle={&quot;curved&quot;:0,&quot;rounded&quot;:0};" parent="6zFAuJA5lrAGqabXl2fa-9" vertex="1">
          <mxGeometry x="5" y="90" width="10" height="350" as="geometry" />
        </mxCell>
        <mxCell id="6zFAuJA5lrAGqabXl2fa-10" value=":Database" style="shape=umlLifeline;perimeter=lifelinePerimeter;whiteSpace=wrap;html=1;container=1;dropTarget=0;collapsible=0;recursiveResize=0;outlineConnect=0;portConstraint=eastwest;newEdgeStyle={&quot;curved&quot;:0,&quot;rounded&quot;:0};" parent="1" vertex="1">
          <mxGeometry x="500" y="40" width="100" height="450" as="geometry" />
        </mxCell>
        <mxCell id="WE9iPw4tN6ql0qUGTbU7-8" value="" style="html=1;points=[[0,0,0,0,5],[0,1,0,0,-5],[1,0,0,0,5],[1,1,0,0,-5]];perimeter=orthogonalPerimeter;outlineConnect=0;targetShapes=umlLifeline;portConstraint=eastwest;newEdgeStyle={&quot;curved&quot;:0,&quot;rounded&quot;:0};" vertex="1" parent="6zFAuJA5lrAGqabXl2fa-10">
          <mxGeometry x="45" y="230" width="10" height="180" as="geometry" />
        </mxCell>
        <mxCell id="6zFAuJA5lrAGqabXl2fa-6" value="web-app view" style="html=1;verticalAlign=bottom;endArrow=open;dashed=1;endSize=8;curved=0;rounded=0;" parent="1" edge="1" source="6zFAuJA5lrAGqabXl2fa-2">
          <mxGeometry x="-0.0062" relative="1" as="geometry">
            <mxPoint x="130" y="200" as="targetPoint" />
            <mxPoint x="245" y="200" as="sourcePoint" />
            <mxPoint as="offset" />
          </mxGeometry>
        </mxCell>
        <mxCell id="4UGIQ3XWcUC0EGN_N2X9-3" value="session" style="shape=umlFrame;whiteSpace=wrap;html=1;pointerEvents=0;" parent="1" vertex="1">
          <mxGeometry x="20" y="100" width="630" height="120" as="geometry" />
        </mxCell>
        <mxCell id="4UGIQ3XWcUC0EGN_N2X9-4" value="login" style="shape=umlFrame;whiteSpace=wrap;html=1;pointerEvents=0;" parent="1" vertex="1">
          <mxGeometry x="20" y="220" width="630" height="270" as="geometry" />
        </mxCell>
        <mxCell id="WE9iPw4tN6ql0qUGTbU7-1" value="enters credentials" style="html=1;verticalAlign=bottom;endArrow=block;curved=0;rounded=0;" edge="1" parent="1">
          <mxGeometry x="0.0047" relative="1" as="geometry">
            <mxPoint x="125" y="250" as="sourcePoint" />
            <mxPoint as="offset" />
            <mxPoint x="250" y="250" as="targetPoint" />
          </mxGeometry>
        </mxCell>
        <mxCell id="WE9iPw4tN6ql0qUGTbU7-3" value="view dashboard" style="html=1;verticalAlign=bottom;endArrow=open;dashed=1;endSize=8;curved=0;rounded=0;" edge="1" parent="1">
          <mxGeometry x="-0.0062" relative="1" as="geometry">
            <mxPoint x="130" y="360" as="targetPoint" />
            <mxPoint x="260" y="360" as="sourcePoint" />
            <mxPoint as="offset" />
          </mxGeometry>
        </mxCell>
        <mxCell id="WE9iPw4tN6ql0qUGTbU7-4" value="return resource/page" style="html=1;verticalAlign=bottom;endArrow=open;dashed=1;endSize=8;curved=0;rounded=0;" edge="1" parent="1">
          <mxGeometry x="-0.0035" relative="1" as="geometry">
            <mxPoint x="272.75" y="350" as="targetPoint" />
            <mxPoint x="417.25" y="350" as="sourcePoint" />
            <mxPoint as="offset" />
          </mxGeometry>
        </mxCell>
        <mxCell id="WE9iPw4tN6ql0qUGTbU7-6" value="authenticates" style="html=1;verticalAlign=bottom;endArrow=block;curved=0;rounded=0;" edge="1" parent="1">
          <mxGeometry relative="1" as="geometry">
            <mxPoint x="272.75" y="260" as="sourcePoint" />
            <mxPoint x="417.25" y="260" as="targetPoint" />
          </mxGeometry>
        </mxCell>
        <mxCell id="WE9iPw4tN6ql0qUGTbU7-9" value="" style="html=1;verticalAlign=bottom;endArrow=block;curved=0;rounded=0;" edge="1" parent="1">
          <mxGeometry relative="1" as="geometry">
            <mxPoint x="430" y="280" as="sourcePoint" />
            <mxPoint x="540" y="280" as="targetPoint" />
          </mxGeometry>
        </mxCell>
        <mxCell id="WE9iPw4tN6ql0qUGTbU7-10" value="checks from" style="edgeLabel;html=1;align=center;verticalAlign=middle;resizable=0;points=[];" vertex="1" connectable="0" parent="WE9iPw4tN6ql0qUGTbU7-9">
          <mxGeometry x="-0.0864" y="2" relative="1" as="geometry">
            <mxPoint y="-13" as="offset" />
          </mxGeometry>
        </mxCell>
        <mxCell id="WE9iPw4tN6ql0qUGTbU7-12" value="query results" style="html=1;verticalAlign=bottom;endArrow=open;dashed=1;endSize=8;curved=0;rounded=0;" edge="1" parent="1" target="6zFAuJA5lrAGqabXl2fa-11">
          <mxGeometry relative="1" as="geometry">
            <mxPoint x="410" y="340" as="targetPoint" />
            <mxPoint x="540" y="340" as="sourcePoint" />
            <mxPoint as="offset" />
          </mxGeometry>
        </mxCell>
        <mxCell id="WE9iPw4tN6ql0qUGTbU7-16" value="noquery results" style="html=1;verticalAlign=bottom;endArrow=open;dashed=1;endSize=8;curved=0;rounded=0;" edge="1" parent="1">
          <mxGeometry relative="1" as="geometry">
            <mxPoint x="430" y="400" as="targetPoint" />
            <mxPoint x="540" y="400" as="sourcePoint" />
            <mxPoint as="offset" />
          </mxGeometry>
        </mxCell>
        <mxCell id="WE9iPw4tN6ql0qUGTbU7-17" value="return error" style="html=1;verticalAlign=bottom;endArrow=open;dashed=1;endSize=8;curved=0;rounded=0;" edge="1" parent="1">
          <mxGeometry x="-0.0035" relative="1" as="geometry">
            <mxPoint x="272.5" y="400" as="targetPoint" />
            <mxPoint x="417.5" y="400" as="sourcePoint" />
            <mxPoint as="offset" />
          </mxGeometry>
        </mxCell>
        <mxCell id="WE9iPw4tN6ql0qUGTbU7-18" value="&amp;nbsp;view error" style="html=1;verticalAlign=bottom;endArrow=open;dashed=1;endSize=8;curved=0;rounded=0;" edge="1" parent="1" source="6zFAuJA5lrAGqabXl2fa-4">
          <mxGeometry x="-0.0062" relative="1" as="geometry">
            <mxPoint x="130" y="400" as="targetPoint" />
            <mxPoint x="274.5" y="400" as="sourcePoint" />
            <mxPoint as="offset" />
          </mxGeometry>
        </mxCell>
        <mxCell id="WE9iPw4tN6ql0qUGTbU7-19" value="query hit" style="shape=umlFrame;whiteSpace=wrap;html=1;pointerEvents=0;" vertex="1" parent="1">
          <mxGeometry x="40" y="300" width="610" height="70" as="geometry" />
        </mxCell>
        <mxCell id="WE9iPw4tN6ql0qUGTbU7-20" value="no query hit" style="shape=umlFrame;whiteSpace=wrap;html=1;pointerEvents=0;" vertex="1" parent="1">
          <mxGeometry x="40" y="370" width="610" height="70" as="geometry" />
        </mxCell>
        <mxCell id="6zFAuJA5lrAGqabXl2fa-13" value="return resource/page" style="html=1;verticalAlign=bottom;endArrow=open;dashed=1;endSize=8;curved=0;rounded=0;" parent="1" edge="1">
          <mxGeometry x="-0.0667" relative="1" as="geometry">
            <mxPoint x="270" y="190" as="targetPoint" />
            <mxPoint x="420" y="190" as="sourcePoint" />
            <Array as="points" />
            <mxPoint as="offset" />
          </mxGeometry>
        </mxCell>
        <mxCell id="6zFAuJA5lrAGqabXl2fa-12" value="request web-app &lt;br&gt;and session" style="html=1;verticalAlign=bottom;endArrow=block;curved=0;rounded=0;" parent="1" edge="1">
          <mxGeometry relative="1" as="geometry">
            <mxPoint x="270" y="145" as="sourcePoint" />
            <mxPoint x="414.5" y="145" as="targetPoint" />
          </mxGeometry>
        </mxCell>
      </root>
    </mxGraphModel>
  </diagram>
  <diagram id="18DVcfYDs5HK-WXeTBlx" name="customer-purchase">
    <mxGraphModel dx="652" dy="487" grid="1" gridSize="10" guides="1" tooltips="1" connect="1" arrows="1" fold="1" page="1" pageScale="1" pageWidth="850" pageHeight="1100" math="0" shadow="0">
      <root>
        <mxCell id="0" />
        <mxCell id="1" parent="0" />
        <mxCell id="HJYWOzZBISm-hPoFTadQ-39" value="transfer money&amp;nbsp;&lt;br&gt;to customer&lt;br&gt;holding account" style="html=1;align=left;spacingLeft=2;endArrow=block;rounded=0;edgeStyle=orthogonalEdgeStyle;curved=0;rounded=0;" edge="1" parent="1">
          <mxGeometry x="-0.2941" relative="1" as="geometry">
            <mxPoint x="410" y="660" as="sourcePoint" />
            <Array as="points">
              <mxPoint x="440" y="690" />
            </Array>
            <mxPoint x="415" y="690" as="targetPoint" />
            <mxPoint as="offset" />
          </mxGeometry>
        </mxCell>
        <mxCell id="P8AhGbs-40z2r53JBLJ7-1" value="" style="shape=umlLifeline;perimeter=lifelinePerimeter;whiteSpace=wrap;html=1;container=1;dropTarget=0;collapsible=0;recursiveResize=0;outlineConnect=0;portConstraint=eastwest;newEdgeStyle={&quot;curved&quot;:0,&quot;rounded&quot;:0};participant=umlActor;" vertex="1" parent="1">
          <mxGeometry x="120" y="70" width="20" height="900" as="geometry" />
        </mxCell>
        <mxCell id="_ICpM-UD4wP_YX99mc9k-2" value="" style="html=1;points=[[0,0,0,0,5],[0,1,0,0,-5],[1,0,0,0,5],[1,1,0,0,-5]];perimeter=orthogonalPerimeter;outlineConnect=0;targetShapes=umlLifeline;portConstraint=eastwest;newEdgeStyle={&quot;curved&quot;:0,&quot;rounded&quot;:0};" vertex="1" parent="P8AhGbs-40z2r53JBLJ7-1">
          <mxGeometry x="5" y="60" width="10" height="830" as="geometry" />
        </mxCell>
        <mxCell id="P8AhGbs-40z2r53JBLJ7-2" value=":Client" style="shape=umlLifeline;perimeter=lifelinePerimeter;whiteSpace=wrap;html=1;container=1;dropTarget=0;collapsible=0;recursiveResize=0;outlineConnect=0;portConstraint=eastwest;newEdgeStyle={&quot;curved&quot;:0,&quot;rounded&quot;:0};" vertex="1" parent="1">
          <mxGeometry x="220" y="60" width="100" height="910" as="geometry" />
        </mxCell>
        <mxCell id="_ICpM-UD4wP_YX99mc9k-3" value="" style="html=1;points=[[0,0,0,0,5],[0,1,0,0,-5],[1,0,0,0,5],[1,1,0,0,-5]];perimeter=orthogonalPerimeter;outlineConnect=0;targetShapes=umlLifeline;portConstraint=eastwest;newEdgeStyle={&quot;curved&quot;:0,&quot;rounded&quot;:0};" vertex="1" parent="P8AhGbs-40z2r53JBLJ7-2">
          <mxGeometry x="45" y="70" width="10" height="830" as="geometry" />
        </mxCell>
        <mxCell id="P8AhGbs-40z2r53JBLJ7-3" value=":Server" style="shape=umlLifeline;perimeter=lifelinePerimeter;whiteSpace=wrap;html=1;container=1;dropTarget=0;collapsible=0;recursiveResize=0;outlineConnect=0;portConstraint=eastwest;newEdgeStyle={&quot;curved&quot;:0,&quot;rounded&quot;:0};" vertex="1" parent="1">
          <mxGeometry x="360" y="60" width="100" height="910" as="geometry" />
        </mxCell>
        <mxCell id="HJYWOzZBISm-hPoFTadQ-38" value="transfer money&amp;nbsp;&lt;br&gt;to customer&#39;s&lt;br&gt;account" style="html=1;align=left;spacingLeft=2;endArrow=block;rounded=0;edgeStyle=orthogonalEdgeStyle;curved=0;rounded=0;" edge="1" parent="P8AhGbs-40z2r53JBLJ7-3">
          <mxGeometry relative="1" as="geometry">
            <mxPoint x="50" y="840" as="sourcePoint" />
            <Array as="points">
              <mxPoint x="80" y="840" />
              <mxPoint x="80" y="870" />
            </Array>
            <mxPoint x="55" y="870" as="targetPoint" />
          </mxGeometry>
        </mxCell>
        <mxCell id="_ICpM-UD4wP_YX99mc9k-4" value="" style="html=1;points=[[0,0,0,0,5],[0,1,0,0,-5],[1,0,0,0,5],[1,1,0,0,-5]];perimeter=orthogonalPerimeter;outlineConnect=0;targetShapes=umlLifeline;portConstraint=eastwest;newEdgeStyle={&quot;curved&quot;:0,&quot;rounded&quot;:0};" vertex="1" parent="P8AhGbs-40z2r53JBLJ7-3">
          <mxGeometry x="45" y="70" width="10" height="830" as="geometry" />
        </mxCell>
        <mxCell id="P8AhGbs-40z2r53JBLJ7-4" value=":Database" style="shape=umlLifeline;perimeter=lifelinePerimeter;whiteSpace=wrap;html=1;container=1;dropTarget=0;collapsible=0;recursiveResize=0;outlineConnect=0;portConstraint=eastwest;newEdgeStyle={&quot;curved&quot;:0,&quot;rounded&quot;:0};" vertex="1" parent="1">
          <mxGeometry x="500" y="60" width="100" height="910" as="geometry" />
        </mxCell>
        <mxCell id="_ICpM-UD4wP_YX99mc9k-5" value="" style="html=1;points=[[0,0,0,0,5],[0,1,0,0,-5],[1,0,0,0,5],[1,1,0,0,-5]];perimeter=orthogonalPerimeter;outlineConnect=0;targetShapes=umlLifeline;portConstraint=eastwest;newEdgeStyle={&quot;curved&quot;:0,&quot;rounded&quot;:0};" vertex="1" parent="P8AhGbs-40z2r53JBLJ7-4">
          <mxGeometry x="45" y="70" width="10" height="830" as="geometry" />
        </mxCell>
        <mxCell id="_ICpM-UD4wP_YX99mc9k-1" value=":Customer" style="text;align=center;fontStyle=1;verticalAlign=middle;spacingLeft=3;spacingRight=3;strokeColor=none;rotatable=0;points=[[0,0.5],[1,0.5]];portConstraint=eastwest;html=1;" vertex="1" parent="1">
          <mxGeometry x="90" y="44" width="80" height="26" as="geometry" />
        </mxCell>
        <mxCell id="_ICpM-UD4wP_YX99mc9k-6" value="view items in stock" style="html=1;verticalAlign=bottom;endArrow=open;dashed=1;endSize=8;curved=0;rounded=0;" edge="1" parent="1">
          <mxGeometry relative="1" as="geometry">
            <mxPoint x="260" y="230" as="sourcePoint" />
            <mxPoint x="140" y="230" as="targetPoint" />
          </mxGeometry>
        </mxCell>
        <mxCell id="_ICpM-UD4wP_YX99mc9k-7" value="enters search &amp;amp;filter&lt;br&gt;queries" style="html=1;verticalAlign=bottom;endArrow=block;curved=0;rounded=0;" edge="1" parent="1">
          <mxGeometry x="-0.0037" width="80" relative="1" as="geometry">
            <mxPoint x="135" y="170" as="sourcePoint" />
            <mxPoint x="260" y="170" as="targetPoint" />
            <mxPoint as="offset" />
          </mxGeometry>
        </mxCell>
        <mxCell id="_ICpM-UD4wP_YX99mc9k-8" value="return item list" style="html=1;verticalAlign=bottom;endArrow=open;dashed=1;endSize=8;curved=0;rounded=0;" edge="1" parent="1">
          <mxGeometry relative="1" as="geometry">
            <mxPoint x="402.25" y="220" as="sourcePoint" />
            <mxPoint x="277.75" y="220" as="targetPoint" />
          </mxGeometry>
        </mxCell>
        <mxCell id="_ICpM-UD4wP_YX99mc9k-9" value="request items based&lt;br&gt;on crieteria" style="html=1;verticalAlign=bottom;endArrow=block;curved=0;rounded=0;" edge="1" parent="1">
          <mxGeometry x="-0.0037" width="80" relative="1" as="geometry">
            <mxPoint x="280" y="180" as="sourcePoint" />
            <mxPoint x="400" y="180" as="targetPoint" />
            <mxPoint as="offset" />
          </mxGeometry>
        </mxCell>
        <mxCell id="_ICpM-UD4wP_YX99mc9k-10" value="query results" style="html=1;verticalAlign=bottom;endArrow=open;dashed=1;endSize=8;curved=0;rounded=0;" edge="1" parent="1">
          <mxGeometry relative="1" as="geometry">
            <mxPoint x="544.5" y="210" as="sourcePoint" />
            <mxPoint x="420" y="210" as="targetPoint" />
          </mxGeometry>
        </mxCell>
        <mxCell id="_ICpM-UD4wP_YX99mc9k-11" value="fetch" style="html=1;verticalAlign=bottom;endArrow=block;curved=0;rounded=0;" edge="1" parent="1">
          <mxGeometry x="-0.0037" width="80" relative="1" as="geometry">
            <mxPoint x="420" y="190" as="sourcePoint" />
            <mxPoint x="540" y="190" as="targetPoint" />
            <mxPoint as="offset" />
          </mxGeometry>
        </mxCell>
        <mxCell id="HJYWOzZBISm-hPoFTadQ-3" value="clicks on &lt;br&gt;put item to cart" style="html=1;verticalAlign=bottom;endArrow=block;curved=0;rounded=0;" edge="1" parent="1">
          <mxGeometry x="-0.0037" width="80" relative="1" as="geometry">
            <mxPoint x="140" y="280" as="sourcePoint" />
            <mxPoint x="265" y="280" as="targetPoint" />
            <mxPoint as="offset" />
          </mxGeometry>
        </mxCell>
        <mxCell id="HJYWOzZBISm-hPoFTadQ-4" value="request item addition&lt;br&gt;to cart" style="html=1;verticalAlign=bottom;endArrow=block;curved=0;rounded=0;" edge="1" parent="1">
          <mxGeometry x="-0.0037" width="80" relative="1" as="geometry">
            <mxPoint x="285" y="290" as="sourcePoint" />
            <mxPoint x="405" y="290" as="targetPoint" />
            <mxPoint as="offset" />
          </mxGeometry>
        </mxCell>
        <mxCell id="HJYWOzZBISm-hPoFTadQ-5" value="update" style="html=1;verticalAlign=bottom;endArrow=block;curved=0;rounded=0;" edge="1" parent="1">
          <mxGeometry x="-0.0037" width="80" relative="1" as="geometry">
            <mxPoint x="420" y="300" as="sourcePoint" />
            <mxPoint x="540" y="300" as="targetPoint" />
            <mxPoint as="offset" />
          </mxGeometry>
        </mxCell>
        <mxCell id="HJYWOzZBISm-hPoFTadQ-6" value="success" style="html=1;verticalAlign=bottom;endArrow=open;dashed=1;endSize=8;curved=0;rounded=0;" edge="1" parent="1">
          <mxGeometry relative="1" as="geometry">
            <mxPoint x="544.5" y="330" as="sourcePoint" />
            <mxPoint x="420" y="330" as="targetPoint" />
          </mxGeometry>
        </mxCell>
        <mxCell id="HJYWOzZBISm-hPoFTadQ-8" value="return cart status" style="html=1;verticalAlign=bottom;endArrow=open;dashed=1;endSize=8;curved=0;rounded=0;" edge="1" parent="1">
          <mxGeometry relative="1" as="geometry">
            <mxPoint x="404.5" y="340" as="sourcePoint" />
            <mxPoint x="280" y="340" as="targetPoint" />
          </mxGeometry>
        </mxCell>
        <mxCell id="HJYWOzZBISm-hPoFTadQ-9" value="view updated cart" style="html=1;verticalAlign=bottom;endArrow=open;dashed=1;endSize=8;curved=0;rounded=0;" edge="1" parent="1">
          <mxGeometry relative="1" as="geometry">
            <mxPoint x="264.5" y="350" as="sourcePoint" />
            <mxPoint x="140" y="350" as="targetPoint" />
          </mxGeometry>
        </mxCell>
        <mxCell id="HJYWOzZBISm-hPoFTadQ-10" value="clicks on cart" style="html=1;verticalAlign=bottom;endArrow=block;curved=0;rounded=0;" edge="1" parent="1">
          <mxGeometry x="-0.0037" width="80" relative="1" as="geometry">
            <mxPoint x="140" y="400" as="sourcePoint" />
            <mxPoint x="265" y="400" as="targetPoint" />
            <mxPoint as="offset" />
          </mxGeometry>
        </mxCell>
        <mxCell id="HJYWOzZBISm-hPoFTadQ-11" value="request cart info" style="html=1;verticalAlign=bottom;endArrow=block;curved=0;rounded=0;" edge="1" parent="1">
          <mxGeometry x="-0.0037" width="80" relative="1" as="geometry">
            <mxPoint x="285" y="410" as="sourcePoint" />
            <mxPoint x="405" y="410" as="targetPoint" />
            <mxPoint as="offset" />
          </mxGeometry>
        </mxCell>
        <mxCell id="HJYWOzZBISm-hPoFTadQ-12" value="fetch" style="html=1;verticalAlign=bottom;endArrow=block;curved=0;rounded=0;" edge="1" parent="1">
          <mxGeometry x="-0.0037" width="80" relative="1" as="geometry">
            <mxPoint x="420" y="420" as="sourcePoint" />
            <mxPoint x="540" y="420" as="targetPoint" />
            <mxPoint as="offset" />
          </mxGeometry>
        </mxCell>
        <mxCell id="HJYWOzZBISm-hPoFTadQ-13" value="query results" style="html=1;verticalAlign=bottom;endArrow=open;dashed=1;endSize=8;curved=0;rounded=0;" edge="1" parent="1">
          <mxGeometry relative="1" as="geometry">
            <mxPoint x="544.5" y="450" as="sourcePoint" />
            <mxPoint x="420" y="450" as="targetPoint" />
          </mxGeometry>
        </mxCell>
        <mxCell id="HJYWOzZBISm-hPoFTadQ-14" value="return cart info" style="html=1;verticalAlign=bottom;endArrow=open;dashed=1;endSize=8;curved=0;rounded=0;" edge="1" parent="1">
          <mxGeometry x="-0.004" relative="1" as="geometry">
            <mxPoint x="402.25" y="460" as="sourcePoint" />
            <mxPoint x="277.75" y="460" as="targetPoint" />
            <mxPoint as="offset" />
          </mxGeometry>
        </mxCell>
        <mxCell id="HJYWOzZBISm-hPoFTadQ-15" value="view cart manager" style="html=1;verticalAlign=bottom;endArrow=open;dashed=1;endSize=8;curved=0;rounded=0;" edge="1" parent="1">
          <mxGeometry relative="1" as="geometry">
            <mxPoint x="264.5" y="470" as="sourcePoint" />
            <mxPoint x="140" y="470" as="targetPoint" />
          </mxGeometry>
        </mxCell>
        <mxCell id="HJYWOzZBISm-hPoFTadQ-16" value="clicks on purchase" style="html=1;verticalAlign=bottom;endArrow=block;curved=0;rounded=0;" edge="1" parent="1">
          <mxGeometry x="-0.0037" width="80" relative="1" as="geometry">
            <mxPoint x="140" y="510" as="sourcePoint" />
            <mxPoint x="265" y="510" as="targetPoint" />
            <mxPoint as="offset" />
          </mxGeometry>
        </mxCell>
        <mxCell id="HJYWOzZBISm-hPoFTadQ-17" value="request purchase" style="html=1;verticalAlign=bottom;endArrow=block;curved=0;rounded=0;" edge="1" parent="1">
          <mxGeometry x="-0.0037" width="80" relative="1" as="geometry">
            <mxPoint x="280" y="520" as="sourcePoint" />
            <mxPoint x="400" y="520" as="targetPoint" />
            <mxPoint as="offset" />
          </mxGeometry>
        </mxCell>
        <mxCell id="HJYWOzZBISm-hPoFTadQ-18" value="fetch payment options" style="html=1;verticalAlign=bottom;endArrow=block;curved=0;rounded=0;" edge="1" parent="1">
          <mxGeometry x="-0.0037" width="80" relative="1" as="geometry">
            <mxPoint x="420" y="530" as="sourcePoint" />
            <mxPoint x="540" y="530" as="targetPoint" />
            <mxPoint as="offset" />
          </mxGeometry>
        </mxCell>
        <mxCell id="HJYWOzZBISm-hPoFTadQ-19" value="request transffer &lt;br&gt;money to&lt;br&gt;holding account" style="html=1;verticalAlign=bottom;endArrow=block;curved=0;rounded=0;" edge="1" parent="1">
          <mxGeometry width="80" relative="1" as="geometry">
            <mxPoint x="280" y="640" as="sourcePoint" />
            <mxPoint x="400" y="640" as="targetPoint" />
            <mxPoint as="offset" />
          </mxGeometry>
        </mxCell>
        <mxCell id="HJYWOzZBISm-hPoFTadQ-20" value="query results" style="html=1;verticalAlign=bottom;endArrow=open;dashed=1;endSize=8;curved=0;rounded=0;" edge="1" parent="1">
          <mxGeometry relative="1" as="geometry">
            <mxPoint x="544.5" y="560" as="sourcePoint" />
            <mxPoint x="420" y="560" as="targetPoint" />
          </mxGeometry>
        </mxCell>
        <mxCell id="HJYWOzZBISm-hPoFTadQ-21" value="offer payment &lt;br&gt;options" style="html=1;verticalAlign=bottom;endArrow=open;dashed=1;endSize=8;curved=0;rounded=0;" edge="1" parent="1">
          <mxGeometry x="-0.004" relative="1" as="geometry">
            <mxPoint x="404.5" y="570" as="sourcePoint" />
            <mxPoint x="280" y="570" as="targetPoint" />
            <mxPoint as="offset" />
          </mxGeometry>
        </mxCell>
        <mxCell id="HJYWOzZBISm-hPoFTadQ-22" value="choose payment &lt;br&gt;option" style="html=1;verticalAlign=bottom;endArrow=block;curved=0;rounded=0;" edge="1" parent="1">
          <mxGeometry x="-0.008" width="80" relative="1" as="geometry">
            <mxPoint x="140" y="630" as="sourcePoint" />
            <mxPoint x="265" y="630" as="targetPoint" />
            <mxPoint as="offset" />
          </mxGeometry>
        </mxCell>
        <mxCell id="HJYWOzZBISm-hPoFTadQ-23" value="view payment options" style="html=1;verticalAlign=bottom;endArrow=open;dashed=1;endSize=8;curved=0;rounded=0;" edge="1" parent="1">
          <mxGeometry relative="1" as="geometry">
            <mxPoint x="264.5" y="580" as="sourcePoint" />
            <mxPoint x="140" y="580" as="targetPoint" />
          </mxGeometry>
        </mxCell>
        <mxCell id="HJYWOzZBISm-hPoFTadQ-24" value="create order&lt;br&gt;&amp;amp; record transaction&amp;nbsp;&lt;br&gt;&amp;amp; update" style="html=1;verticalAlign=bottom;endArrow=block;curved=0;rounded=0;labelBackgroundColor=none;" edge="1" parent="1">
          <mxGeometry y="-30" width="80" relative="1" as="geometry">
            <mxPoint x="420" y="710" as="sourcePoint" />
            <mxPoint x="540" y="710" as="targetPoint" />
            <mxPoint as="offset" />
          </mxGeometry>
        </mxCell>
        <mxCell id="HJYWOzZBISm-hPoFTadQ-26" value="return order info" style="html=1;verticalAlign=bottom;endArrow=open;dashed=1;endSize=8;curved=0;rounded=0;" edge="1" parent="1">
          <mxGeometry x="-0.004" relative="1" as="geometry">
            <mxPoint x="404.5" y="780" as="sourcePoint" />
            <mxPoint x="280" y="780" as="targetPoint" />
            <mxPoint as="offset" />
          </mxGeometry>
        </mxCell>
        <mxCell id="HJYWOzZBISm-hPoFTadQ-27" value="view order info" style="html=1;verticalAlign=bottom;endArrow=open;dashed=1;endSize=8;curved=0;rounded=0;" edge="1" parent="1">
          <mxGeometry x="-0.004" relative="1" as="geometry">
            <mxPoint x="264.5" y="790" as="sourcePoint" />
            <mxPoint x="140" y="790" as="targetPoint" />
            <mxPoint as="offset" />
          </mxGeometry>
        </mxCell>
        <mxCell id="HJYWOzZBISm-hPoFTadQ-28" value="request order&lt;br&gt;cancelation" style="html=1;verticalAlign=bottom;endArrow=block;curved=0;rounded=0;" edge="1" parent="1">
          <mxGeometry width="80" relative="1" as="geometry">
            <mxPoint x="280" y="840" as="sourcePoint" />
            <mxPoint x="400" y="840" as="targetPoint" />
            <mxPoint as="offset" />
          </mxGeometry>
        </mxCell>
        <mxCell id="HJYWOzZBISm-hPoFTadQ-29" value="cancel order" style="html=1;verticalAlign=bottom;endArrow=block;curved=0;rounded=0;" edge="1" parent="1">
          <mxGeometry x="-0.008" width="80" relative="1" as="geometry">
            <mxPoint x="140" y="830" as="sourcePoint" />
            <mxPoint x="265" y="830" as="targetPoint" />
            <mxPoint as="offset" />
          </mxGeometry>
        </mxCell>
        <mxCell id="HJYWOzZBISm-hPoFTadQ-30" value="update" style="html=1;verticalAlign=bottom;endArrow=block;curved=0;rounded=0;" edge="1" parent="1">
          <mxGeometry x="-0.0037" width="80" relative="1" as="geometry">
            <mxPoint x="420" y="850" as="sourcePoint" />
            <mxPoint x="540" y="850" as="targetPoint" />
            <mxPoint as="offset" />
          </mxGeometry>
        </mxCell>
        <mxCell id="HJYWOzZBISm-hPoFTadQ-31" value="success" style="html=1;verticalAlign=bottom;endArrow=open;dashed=1;endSize=8;curved=0;rounded=0;" edge="1" parent="1">
          <mxGeometry relative="1" as="geometry">
            <mxPoint x="544.5" y="880" as="sourcePoint" />
            <mxPoint x="420" y="880" as="targetPoint" />
          </mxGeometry>
        </mxCell>
        <mxCell id="HJYWOzZBISm-hPoFTadQ-32" value="return order info" style="html=1;verticalAlign=bottom;endArrow=open;dashed=1;endSize=8;curved=0;rounded=0;" edge="1" parent="1">
          <mxGeometry x="-0.004" relative="1" as="geometry">
            <mxPoint x="402.25" y="940" as="sourcePoint" />
            <mxPoint x="277.75" y="940" as="targetPoint" />
            <mxPoint as="offset" />
          </mxGeometry>
        </mxCell>
        <mxCell id="HJYWOzZBISm-hPoFTadQ-33" value="view order info" style="html=1;verticalAlign=bottom;endArrow=open;dashed=1;endSize=8;curved=0;rounded=0;" edge="1" parent="1">
          <mxGeometry x="-0.004" relative="1" as="geometry">
            <mxPoint x="264.5" y="950" as="sourcePoint" />
            <mxPoint x="140" y="950" as="targetPoint" />
            <mxPoint as="offset" />
          </mxGeometry>
        </mxCell>
        <mxCell id="HJYWOzZBISm-hPoFTadQ-25" value="success" style="html=1;verticalAlign=bottom;endArrow=open;dashed=1;endSize=8;curved=0;rounded=0;" edge="1" parent="1">
          <mxGeometry relative="1" as="geometry">
            <mxPoint x="544.5" y="770" as="sourcePoint" />
            <mxPoint x="420" y="770" as="targetPoint" />
          </mxGeometry>
        </mxCell>
      </root>
    </mxGraphModel>
  </diagram>
  <diagram id="zYRmf8WyjDBNvSzip7n-" name="vendor-stock">
    <mxGraphModel dx="652" dy="487" grid="1" gridSize="10" guides="1" tooltips="1" connect="1" arrows="1" fold="1" page="1" pageScale="1" pageWidth="850" pageHeight="1100" math="0" shadow="0">
      <root>
        <mxCell id="0" />
        <mxCell id="1" parent="0" />
        <mxCell id="vorYDr05G-PtP4gB0I0V-50" value="cancel related &lt;br&gt;orders" style="html=1;align=left;spacingLeft=2;endArrow=block;rounded=0;edgeStyle=orthogonalEdgeStyle;curved=0;rounded=0;" edge="1" parent="1">
          <mxGeometry relative="1" as="geometry">
            <mxPoint x="410" y="650" as="sourcePoint" />
            <Array as="points">
              <mxPoint x="440" y="650" />
              <mxPoint x="440" y="680" />
            </Array>
            <mxPoint x="415" y="680" as="targetPoint" />
          </mxGeometry>
        </mxCell>
        <mxCell id="vorYDr05G-PtP4gB0I0V-2" value="" style="shape=umlLifeline;perimeter=lifelinePerimeter;whiteSpace=wrap;html=1;container=1;dropTarget=0;collapsible=0;recursiveResize=0;outlineConnect=0;portConstraint=eastwest;newEdgeStyle={&quot;curved&quot;:0,&quot;rounded&quot;:0};participant=umlActor;" vertex="1" parent="1">
          <mxGeometry x="120" y="70" width="20" height="900" as="geometry" />
        </mxCell>
        <mxCell id="vorYDr05G-PtP4gB0I0V-3" value="" style="html=1;points=[[0,0,0,0,5],[0,1,0,0,-5],[1,0,0,0,5],[1,1,0,0,-5]];perimeter=orthogonalPerimeter;outlineConnect=0;targetShapes=umlLifeline;portConstraint=eastwest;newEdgeStyle={&quot;curved&quot;:0,&quot;rounded&quot;:0};" vertex="1" parent="vorYDr05G-PtP4gB0I0V-2">
          <mxGeometry x="5" y="60" width="10" height="830" as="geometry" />
        </mxCell>
        <mxCell id="vorYDr05G-PtP4gB0I0V-4" value=":Client" style="shape=umlLifeline;perimeter=lifelinePerimeter;whiteSpace=wrap;html=1;container=1;dropTarget=0;collapsible=0;recursiveResize=0;outlineConnect=0;portConstraint=eastwest;newEdgeStyle={&quot;curved&quot;:0,&quot;rounded&quot;:0};" vertex="1" parent="1">
          <mxGeometry x="220" y="60" width="100" height="910" as="geometry" />
        </mxCell>
        <mxCell id="vorYDr05G-PtP4gB0I0V-5" value="" style="html=1;points=[[0,0,0,0,5],[0,1,0,0,-5],[1,0,0,0,5],[1,1,0,0,-5]];perimeter=orthogonalPerimeter;outlineConnect=0;targetShapes=umlLifeline;portConstraint=eastwest;newEdgeStyle={&quot;curved&quot;:0,&quot;rounded&quot;:0};" vertex="1" parent="vorYDr05G-PtP4gB0I0V-4">
          <mxGeometry x="45" y="70" width="10" height="830" as="geometry" />
        </mxCell>
        <mxCell id="vorYDr05G-PtP4gB0I0V-6" value=":Server" style="shape=umlLifeline;perimeter=lifelinePerimeter;whiteSpace=wrap;html=1;container=1;dropTarget=0;collapsible=0;recursiveResize=0;outlineConnect=0;portConstraint=eastwest;newEdgeStyle={&quot;curved&quot;:0,&quot;rounded&quot;:0};" vertex="1" parent="1">
          <mxGeometry x="360" y="60" width="100" height="910" as="geometry" />
        </mxCell>
        <mxCell id="vorYDr05G-PtP4gB0I0V-8" value="" style="html=1;points=[[0,0,0,0,5],[0,1,0,0,-5],[1,0,0,0,5],[1,1,0,0,-5]];perimeter=orthogonalPerimeter;outlineConnect=0;targetShapes=umlLifeline;portConstraint=eastwest;newEdgeStyle={&quot;curved&quot;:0,&quot;rounded&quot;:0};" vertex="1" parent="vorYDr05G-PtP4gB0I0V-6">
          <mxGeometry x="45" y="70" width="10" height="830" as="geometry" />
        </mxCell>
        <mxCell id="vorYDr05G-PtP4gB0I0V-9" value=":Database" style="shape=umlLifeline;perimeter=lifelinePerimeter;whiteSpace=wrap;html=1;container=1;dropTarget=0;collapsible=0;recursiveResize=0;outlineConnect=0;portConstraint=eastwest;newEdgeStyle={&quot;curved&quot;:0,&quot;rounded&quot;:0};" vertex="1" parent="1">
          <mxGeometry x="500" y="60" width="100" height="910" as="geometry" />
        </mxCell>
        <mxCell id="vorYDr05G-PtP4gB0I0V-10" value="" style="html=1;points=[[0,0,0,0,5],[0,1,0,0,-5],[1,0,0,0,5],[1,1,0,0,-5]];perimeter=orthogonalPerimeter;outlineConnect=0;targetShapes=umlLifeline;portConstraint=eastwest;newEdgeStyle={&quot;curved&quot;:0,&quot;rounded&quot;:0};" vertex="1" parent="vorYDr05G-PtP4gB0I0V-9">
          <mxGeometry x="45" y="220" width="10" height="680" as="geometry" />
        </mxCell>
        <mxCell id="vorYDr05G-PtP4gB0I0V-11" value=":Vendor" style="text;align=center;fontStyle=1;verticalAlign=middle;spacingLeft=3;spacingRight=3;strokeColor=none;rotatable=0;points=[[0,0.5],[1,0.5]];portConstraint=eastwest;html=1;" vertex="1" parent="1">
          <mxGeometry x="90" y="44" width="80" height="26" as="geometry" />
        </mxCell>
        <mxCell id="vorYDr05G-PtP4gB0I0V-12" value="view items form" style="html=1;verticalAlign=bottom;endArrow=open;dashed=1;endSize=8;curved=0;rounded=0;" edge="1" parent="1">
          <mxGeometry relative="1" as="geometry">
            <mxPoint x="260" y="230" as="sourcePoint" />
            <mxPoint x="140" y="230" as="targetPoint" />
          </mxGeometry>
        </mxCell>
        <mxCell id="vorYDr05G-PtP4gB0I0V-13" value="clicks on&amp;nbsp;&lt;br&gt;register item" style="html=1;verticalAlign=bottom;endArrow=block;curved=0;rounded=0;" edge="1" parent="1">
          <mxGeometry x="-0.0037" width="80" relative="1" as="geometry">
            <mxPoint x="135" y="170" as="sourcePoint" />
            <mxPoint x="260" y="170" as="targetPoint" />
            <mxPoint as="offset" />
          </mxGeometry>
        </mxCell>
        <mxCell id="vorYDr05G-PtP4gB0I0V-14" value="return item form" style="html=1;verticalAlign=bottom;endArrow=open;dashed=1;endSize=8;curved=0;rounded=0;" edge="1" parent="1">
          <mxGeometry relative="1" as="geometry">
            <mxPoint x="402.25" y="220" as="sourcePoint" />
            <mxPoint x="277.75" y="220" as="targetPoint" />
          </mxGeometry>
        </mxCell>
        <mxCell id="vorYDr05G-PtP4gB0I0V-15" value="request item form" style="html=1;verticalAlign=bottom;endArrow=block;curved=0;rounded=0;" edge="1" parent="1">
          <mxGeometry x="-0.0037" width="80" relative="1" as="geometry">
            <mxPoint x="280" y="180" as="sourcePoint" />
            <mxPoint x="400" y="180" as="targetPoint" />
            <mxPoint as="offset" />
          </mxGeometry>
        </mxCell>
        <mxCell id="vorYDr05G-PtP4gB0I0V-18" value="enter item info &amp;amp;&lt;br&gt;click on register" style="html=1;verticalAlign=bottom;endArrow=block;curved=0;rounded=0;" edge="1" parent="1">
          <mxGeometry x="-0.0037" width="80" relative="1" as="geometry">
            <mxPoint x="140" y="280" as="sourcePoint" />
            <mxPoint x="265" y="280" as="targetPoint" />
            <mxPoint as="offset" />
          </mxGeometry>
        </mxCell>
        <mxCell id="vorYDr05G-PtP4gB0I0V-19" value="request item addition&lt;br&gt;to vendor stock" style="html=1;verticalAlign=bottom;endArrow=block;curved=0;rounded=0;" edge="1" parent="1">
          <mxGeometry x="-0.0037" width="80" relative="1" as="geometry">
            <mxPoint x="285" y="290" as="sourcePoint" />
            <mxPoint x="405" y="290" as="targetPoint" />
            <mxPoint as="offset" />
          </mxGeometry>
        </mxCell>
        <mxCell id="vorYDr05G-PtP4gB0I0V-20" value="insert" style="html=1;verticalAlign=bottom;endArrow=block;curved=0;rounded=0;" edge="1" parent="1">
          <mxGeometry x="-0.0037" width="80" relative="1" as="geometry">
            <mxPoint x="420" y="300" as="sourcePoint" />
            <mxPoint x="540" y="300" as="targetPoint" />
            <mxPoint as="offset" />
          </mxGeometry>
        </mxCell>
        <mxCell id="vorYDr05G-PtP4gB0I0V-21" value="success" style="html=1;verticalAlign=bottom;endArrow=open;dashed=1;endSize=8;curved=0;rounded=0;" edge="1" parent="1">
          <mxGeometry relative="1" as="geometry">
            <mxPoint x="544.5" y="330" as="sourcePoint" />
            <mxPoint x="420" y="330" as="targetPoint" />
          </mxGeometry>
        </mxCell>
        <mxCell id="vorYDr05G-PtP4gB0I0V-22" value="return stock item status" style="html=1;verticalAlign=bottom;endArrow=open;dashed=1;endSize=8;curved=0;rounded=0;" edge="1" parent="1">
          <mxGeometry relative="1" as="geometry">
            <mxPoint x="404.5" y="340" as="sourcePoint" />
            <mxPoint x="280" y="340" as="targetPoint" />
          </mxGeometry>
        </mxCell>
        <mxCell id="vorYDr05G-PtP4gB0I0V-23" value="view stock item status" style="html=1;verticalAlign=bottom;endArrow=open;dashed=1;endSize=8;curved=0;rounded=0;" edge="1" parent="1">
          <mxGeometry relative="1" as="geometry">
            <mxPoint x="264.5" y="350" as="sourcePoint" />
            <mxPoint x="140" y="350" as="targetPoint" />
          </mxGeometry>
        </mxCell>
        <mxCell id="vorYDr05G-PtP4gB0I0V-24" value="clicks on stock" style="html=1;verticalAlign=bottom;endArrow=block;curved=0;rounded=0;" edge="1" parent="1">
          <mxGeometry x="-0.0037" width="80" relative="1" as="geometry">
            <mxPoint x="140" y="400" as="sourcePoint" />
            <mxPoint x="265" y="400" as="targetPoint" />
            <mxPoint as="offset" />
          </mxGeometry>
        </mxCell>
        <mxCell id="vorYDr05G-PtP4gB0I0V-25" value="request stock items" style="html=1;verticalAlign=bottom;endArrow=block;curved=0;rounded=0;" edge="1" parent="1">
          <mxGeometry x="-0.0037" width="80" relative="1" as="geometry">
            <mxPoint x="285" y="410" as="sourcePoint" />
            <mxPoint x="405" y="410" as="targetPoint" />
            <mxPoint as="offset" />
          </mxGeometry>
        </mxCell>
        <mxCell id="vorYDr05G-PtP4gB0I0V-26" value="fetch" style="html=1;verticalAlign=bottom;endArrow=block;curved=0;rounded=0;" edge="1" parent="1">
          <mxGeometry x="-0.0037" width="80" relative="1" as="geometry">
            <mxPoint x="420" y="420" as="sourcePoint" />
            <mxPoint x="540" y="420" as="targetPoint" />
            <mxPoint as="offset" />
          </mxGeometry>
        </mxCell>
        <mxCell id="vorYDr05G-PtP4gB0I0V-27" value="query results" style="html=1;verticalAlign=bottom;endArrow=open;dashed=1;endSize=8;curved=0;rounded=0;" edge="1" parent="1">
          <mxGeometry relative="1" as="geometry">
            <mxPoint x="544.5" y="450" as="sourcePoint" />
            <mxPoint x="420" y="450" as="targetPoint" />
          </mxGeometry>
        </mxCell>
        <mxCell id="vorYDr05G-PtP4gB0I0V-28" value="return stock items list" style="html=1;verticalAlign=bottom;endArrow=open;dashed=1;endSize=8;curved=0;rounded=0;" edge="1" parent="1">
          <mxGeometry x="-0.004" relative="1" as="geometry">
            <mxPoint x="402.25" y="460" as="sourcePoint" />
            <mxPoint x="277.75" y="460" as="targetPoint" />
            <mxPoint as="offset" />
          </mxGeometry>
        </mxCell>
        <mxCell id="vorYDr05G-PtP4gB0I0V-29" value="view stock items" style="html=1;verticalAlign=bottom;endArrow=open;dashed=1;endSize=8;curved=0;rounded=0;" edge="1" parent="1">
          <mxGeometry relative="1" as="geometry">
            <mxPoint x="264.5" y="470" as="sourcePoint" />
            <mxPoint x="140" y="470" as="targetPoint" />
          </mxGeometry>
        </mxCell>
        <mxCell id="vorYDr05G-PtP4gB0I0V-30" value="modify item info &amp;amp;&lt;br&gt;click on update" style="html=1;verticalAlign=bottom;endArrow=block;curved=0;rounded=0;" edge="1" parent="1">
          <mxGeometry x="-0.0037" width="80" relative="1" as="geometry">
            <mxPoint x="140" y="510" as="sourcePoint" />
            <mxPoint x="265" y="510" as="targetPoint" />
            <mxPoint as="offset" />
          </mxGeometry>
        </mxCell>
        <mxCell id="vorYDr05G-PtP4gB0I0V-31" value="request item update" style="html=1;verticalAlign=bottom;endArrow=block;curved=0;rounded=0;" edge="1" parent="1">
          <mxGeometry x="-0.0037" width="80" relative="1" as="geometry">
            <mxPoint x="280" y="520" as="sourcePoint" />
            <mxPoint x="400" y="520" as="targetPoint" />
            <mxPoint as="offset" />
          </mxGeometry>
        </mxCell>
        <mxCell id="vorYDr05G-PtP4gB0I0V-32" value="update" style="html=1;verticalAlign=bottom;endArrow=block;curved=0;rounded=0;" edge="1" parent="1">
          <mxGeometry x="-0.0037" width="80" relative="1" as="geometry">
            <mxPoint x="420" y="530" as="sourcePoint" />
            <mxPoint x="540" y="530" as="targetPoint" />
            <mxPoint as="offset" />
          </mxGeometry>
        </mxCell>
        <mxCell id="vorYDr05G-PtP4gB0I0V-33" value="request removal &lt;br&gt;of stock item" style="html=1;verticalAlign=bottom;endArrow=block;curved=0;rounded=0;" edge="1" parent="1">
          <mxGeometry width="80" relative="1" as="geometry">
            <mxPoint x="280" y="640" as="sourcePoint" />
            <mxPoint x="400" y="640" as="targetPoint" />
            <mxPoint as="offset" />
          </mxGeometry>
        </mxCell>
        <mxCell id="vorYDr05G-PtP4gB0I0V-34" value="success" style="html=1;verticalAlign=bottom;endArrow=open;dashed=1;endSize=8;curved=0;rounded=0;" edge="1" parent="1">
          <mxGeometry relative="1" as="geometry">
            <mxPoint x="544.5" y="560" as="sourcePoint" />
            <mxPoint x="420" y="560" as="targetPoint" />
          </mxGeometry>
        </mxCell>
        <mxCell id="vorYDr05G-PtP4gB0I0V-35" value="return updated &lt;br&gt;stock info" style="html=1;verticalAlign=bottom;endArrow=open;dashed=1;endSize=8;curved=0;rounded=0;" edge="1" parent="1">
          <mxGeometry x="-0.004" relative="1" as="geometry">
            <mxPoint x="404.5" y="570" as="sourcePoint" />
            <mxPoint x="280" y="570" as="targetPoint" />
            <mxPoint as="offset" />
          </mxGeometry>
        </mxCell>
        <mxCell id="vorYDr05G-PtP4gB0I0V-36" value="remove items &lt;br&gt;from stock &amp;amp; &lt;br&gt;click on update" style="html=1;verticalAlign=bottom;endArrow=block;curved=0;rounded=0;" edge="1" parent="1">
          <mxGeometry x="-0.008" width="80" relative="1" as="geometry">
            <mxPoint x="140" y="630" as="sourcePoint" />
            <mxPoint x="265" y="630" as="targetPoint" />
            <mxPoint as="offset" />
          </mxGeometry>
        </mxCell>
        <mxCell id="vorYDr05G-PtP4gB0I0V-37" value="view status &amp;amp;&lt;br&gt;stock items" style="html=1;verticalAlign=bottom;endArrow=open;dashed=1;endSize=8;curved=0;rounded=0;" edge="1" parent="1">
          <mxGeometry relative="1" as="geometry">
            <mxPoint x="264.5" y="580" as="sourcePoint" />
            <mxPoint x="140" y="580" as="targetPoint" />
          </mxGeometry>
        </mxCell>
        <mxCell id="vorYDr05G-PtP4gB0I0V-39" value="return removal status" style="html=1;verticalAlign=bottom;endArrow=open;dashed=1;endSize=8;curved=0;rounded=0;" edge="1" parent="1">
          <mxGeometry x="-0.004" relative="1" as="geometry">
            <mxPoint x="404.5" y="780" as="sourcePoint" />
            <mxPoint x="280" y="780" as="targetPoint" />
            <mxPoint as="offset" />
          </mxGeometry>
        </mxCell>
        <mxCell id="vorYDr05G-PtP4gB0I0V-40" value="view status &amp;amp; &lt;br&gt;stock items" style="html=1;verticalAlign=bottom;endArrow=open;dashed=1;endSize=8;curved=0;rounded=0;" edge="1" parent="1">
          <mxGeometry x="-0.004" relative="1" as="geometry">
            <mxPoint x="264.5" y="790" as="sourcePoint" />
            <mxPoint x="140" y="790" as="targetPoint" />
            <mxPoint as="offset" />
          </mxGeometry>
        </mxCell>
        <mxCell id="vorYDr05G-PtP4gB0I0V-47" value="success" style="html=1;verticalAlign=bottom;endArrow=open;dashed=1;endSize=8;curved=0;rounded=0;" edge="1" parent="1">
          <mxGeometry relative="1" as="geometry">
            <mxPoint x="544.5" y="770" as="sourcePoint" />
            <mxPoint x="420" y="770" as="targetPoint" />
          </mxGeometry>
        </mxCell>
        <mxCell id="vorYDr05G-PtP4gB0I0V-48" value="update" style="html=1;verticalAlign=bottom;endArrow=block;curved=0;rounded=0;" edge="1" parent="1">
          <mxGeometry x="-0.0037" width="80" relative="1" as="geometry">
            <mxPoint x="420" y="700" as="sourcePoint" />
            <mxPoint x="540" y="700" as="targetPoint" />
            <mxPoint as="offset" />
          </mxGeometry>
        </mxCell>
        <mxCell id="vorYDr05G-PtP4gB0I0V-49" value="success" style="html=1;verticalAlign=bottom;endArrow=open;dashed=1;endSize=8;curved=0;rounded=0;" edge="1" parent="1">
          <mxGeometry relative="1" as="geometry">
            <mxPoint x="544.5" y="730" as="sourcePoint" />
            <mxPoint x="420" y="730" as="targetPoint" />
          </mxGeometry>
        </mxCell>
      </root>
    </mxGraphModel>
  </diagram>
  <diagram id="eTkuoeg0ZMH3j0D-ZO0u" name="manager-courier">
    <mxGraphModel dx="782" dy="584" grid="1" gridSize="10" guides="1" tooltips="1" connect="1" arrows="1" fold="1" page="1" pageScale="1" pageWidth="850" pageHeight="1100" math="0" shadow="0">
      <root>
        <mxCell id="0" />
        <mxCell id="1" parent="0" />
        <mxCell id="8enPILwHu4PmTif5zUDg-1" value=":Client" style="shape=umlLifeline;perimeter=lifelinePerimeter;whiteSpace=wrap;html=1;container=1;dropTarget=0;collapsible=0;recursiveResize=0;outlineConnect=0;portConstraint=eastwest;newEdgeStyle={&quot;curved&quot;:0,&quot;rounded&quot;:0};" vertex="1" parent="1">
          <mxGeometry x="220" y="60" width="100" height="910" as="geometry" />
        </mxCell>
        <mxCell id="8enPILwHu4PmTif5zUDg-2" value="" style="html=1;points=[[0,0,0,0,5],[0,1,0,0,-5],[1,0,0,0,5],[1,1,0,0,-5]];perimeter=orthogonalPerimeter;outlineConnect=0;targetShapes=umlLifeline;portConstraint=eastwest;newEdgeStyle={&quot;curved&quot;:0,&quot;rounded&quot;:0};" vertex="1" parent="8enPILwHu4PmTif5zUDg-1">
          <mxGeometry x="45" y="70" width="10" height="830" as="geometry" />
        </mxCell>
        <mxCell id="8enPILwHu4PmTif5zUDg-3" value=":Server" style="shape=umlLifeline;perimeter=lifelinePerimeter;whiteSpace=wrap;html=1;container=1;dropTarget=0;collapsible=0;recursiveResize=0;outlineConnect=0;portConstraint=eastwest;newEdgeStyle={&quot;curved&quot;:0,&quot;rounded&quot;:0};" vertex="1" parent="1">
          <mxGeometry x="360" y="60" width="100" height="910" as="geometry" />
        </mxCell>
        <mxCell id="8enPILwHu4PmTif5zUDg-4" value="" style="html=1;points=[[0,0,0,0,5],[0,1,0,0,-5],[1,0,0,0,5],[1,1,0,0,-5]];perimeter=orthogonalPerimeter;outlineConnect=0;targetShapes=umlLifeline;portConstraint=eastwest;newEdgeStyle={&quot;curved&quot;:0,&quot;rounded&quot;:0};" vertex="1" parent="8enPILwHu4PmTif5zUDg-3">
          <mxGeometry x="45" y="70" width="10" height="830" as="geometry" />
        </mxCell>
        <mxCell id="8enPILwHu4PmTif5zUDg-5" value=":Database" style="shape=umlLifeline;perimeter=lifelinePerimeter;whiteSpace=wrap;html=1;container=1;dropTarget=0;collapsible=0;recursiveResize=0;outlineConnect=0;portConstraint=eastwest;newEdgeStyle={&quot;curved&quot;:0,&quot;rounded&quot;:0};" vertex="1" parent="1">
          <mxGeometry x="500" y="60" width="100" height="910" as="geometry" />
        </mxCell>
        <mxCell id="8enPILwHu4PmTif5zUDg-6" value="" style="html=1;points=[[0,0,0,0,5],[0,1,0,0,-5],[1,0,0,0,5],[1,1,0,0,-5]];perimeter=orthogonalPerimeter;outlineConnect=0;targetShapes=umlLifeline;portConstraint=eastwest;newEdgeStyle={&quot;curved&quot;:0,&quot;rounded&quot;:0};" vertex="1" parent="8enPILwHu4PmTif5zUDg-5">
          <mxGeometry x="45" y="330" width="10" height="570" as="geometry" />
        </mxCell>
        <mxCell id="8enPILwHu4PmTif5zUDg-7" value=":Manager" style="text;align=center;fontStyle=1;verticalAlign=middle;spacingLeft=3;spacingRight=3;strokeColor=none;rotatable=0;points=[[0,0.5],[1,0.5]];portConstraint=eastwest;html=1;" vertex="1" parent="1">
          <mxGeometry x="90" y="44" width="80" height="26" as="geometry" />
        </mxCell>
        <mxCell id="yUxICEahl1OaVUL2yHXZ-1" value="" style="shape=umlLifeline;perimeter=lifelinePerimeter;whiteSpace=wrap;html=1;container=1;dropTarget=0;collapsible=0;recursiveResize=0;outlineConnect=0;portConstraint=eastwest;newEdgeStyle={&quot;curved&quot;:0,&quot;rounded&quot;:0};participant=umlActor;" vertex="1" parent="1">
          <mxGeometry x="120" y="70" width="20" height="900" as="geometry" />
        </mxCell>
        <mxCell id="yUxICEahl1OaVUL2yHXZ-2" value="" style="html=1;points=[[0,0,0,0,5],[0,1,0,0,-5],[1,0,0,0,5],[1,1,0,0,-5]];perimeter=orthogonalPerimeter;outlineConnect=0;targetShapes=umlLifeline;portConstraint=eastwest;newEdgeStyle={&quot;curved&quot;:0,&quot;rounded&quot;:0};" vertex="1" parent="yUxICEahl1OaVUL2yHXZ-1">
          <mxGeometry x="5" y="60" width="10" height="830" as="geometry" />
        </mxCell>
        <mxCell id="yUxICEahl1OaVUL2yHXZ-3" value=":Courier" style="text;align=center;fontStyle=1;verticalAlign=middle;spacingLeft=3;spacingRight=3;strokeColor=none;rotatable=0;points=[[0,0.5],[1,0.5]];portConstraint=eastwest;html=1;" vertex="1" parent="1">
          <mxGeometry x="640" y="39" width="80" height="26" as="geometry" />
        </mxCell>
        <mxCell id="yUxICEahl1OaVUL2yHXZ-4" value="" style="shape=umlLifeline;perimeter=lifelinePerimeter;whiteSpace=wrap;html=1;container=1;dropTarget=0;collapsible=0;recursiveResize=0;outlineConnect=0;portConstraint=eastwest;newEdgeStyle={&quot;curved&quot;:0,&quot;rounded&quot;:0};participant=umlActor;" vertex="1" parent="1">
          <mxGeometry x="670" y="65" width="20" height="900" as="geometry" />
        </mxCell>
        <mxCell id="yUxICEahl1OaVUL2yHXZ-5" value="" style="html=1;points=[[0,0,0,0,5],[0,1,0,0,-5],[1,0,0,0,5],[1,1,0,0,-5]];perimeter=orthogonalPerimeter;outlineConnect=0;targetShapes=umlLifeline;portConstraint=eastwest;newEdgeStyle={&quot;curved&quot;:0,&quot;rounded&quot;:0};" vertex="1" parent="yUxICEahl1OaVUL2yHXZ-4">
          <mxGeometry x="5" y="60" width="10" height="830" as="geometry" />
        </mxCell>
        <mxCell id="0-jgU2Hm_Rt-sd1UTikU-1" value="clicks on &lt;br&gt;register courier" style="html=1;verticalAlign=bottom;endArrow=block;curved=0;rounded=0;" edge="1" parent="1">
          <mxGeometry x="-0.0037" width="80" relative="1" as="geometry">
            <mxPoint x="140" y="180" as="sourcePoint" />
            <mxPoint x="265" y="180" as="targetPoint" />
            <mxPoint as="offset" />
          </mxGeometry>
        </mxCell>
        <mxCell id="0-jgU2Hm_Rt-sd1UTikU-2" value="request courier&lt;br&gt;registration form" style="html=1;verticalAlign=bottom;endArrow=block;curved=0;rounded=0;" edge="1" parent="1">
          <mxGeometry x="-0.0037" width="80" relative="1" as="geometry">
            <mxPoint x="285" y="190" as="sourcePoint" />
            <mxPoint x="405" y="190" as="targetPoint" />
            <mxPoint as="offset" />
          </mxGeometry>
        </mxCell>
        <mxCell id="0-jgU2Hm_Rt-sd1UTikU-5" value="return registration &lt;br&gt;form" style="html=1;verticalAlign=bottom;endArrow=open;dashed=1;endSize=8;curved=0;rounded=0;" edge="1" parent="1">
          <mxGeometry relative="1" as="geometry">
            <mxPoint x="404.5" y="240" as="sourcePoint" />
            <mxPoint x="280" y="240" as="targetPoint" />
          </mxGeometry>
        </mxCell>
        <mxCell id="0-jgU2Hm_Rt-sd1UTikU-6" value="view registration &lt;br&gt;form" style="html=1;verticalAlign=bottom;endArrow=open;dashed=1;endSize=8;curved=0;rounded=0;" edge="1" parent="1">
          <mxGeometry relative="1" as="geometry">
            <mxPoint x="264.5" y="250" as="sourcePoint" />
            <mxPoint x="140" y="250" as="targetPoint" />
          </mxGeometry>
        </mxCell>
        <mxCell id="0-jgU2Hm_Rt-sd1UTikU-7" value="fill registration form&lt;br style=&quot;border-color: var(--border-color);&quot;&gt;&amp;amp; click on register" style="html=1;verticalAlign=bottom;endArrow=block;curved=0;rounded=0;" edge="1" parent="1">
          <mxGeometry x="-0.0037" width="80" relative="1" as="geometry">
            <mxPoint x="140" y="390" as="sourcePoint" />
            <mxPoint x="265" y="390" as="targetPoint" />
            <mxPoint as="offset" />
          </mxGeometry>
        </mxCell>
        <mxCell id="0-jgU2Hm_Rt-sd1UTikU-8" value="request courier&lt;br&gt;registration" style="html=1;verticalAlign=bottom;endArrow=block;curved=0;rounded=0;" edge="1" parent="1">
          <mxGeometry x="-0.0037" width="80" relative="1" as="geometry">
            <mxPoint x="285" y="400" as="sourcePoint" />
            <mxPoint x="405" y="400" as="targetPoint" />
            <mxPoint as="offset" />
          </mxGeometry>
        </mxCell>
        <mxCell id="0-jgU2Hm_Rt-sd1UTikU-9" value="insert" style="html=1;verticalAlign=bottom;endArrow=block;curved=0;rounded=0;" edge="1" parent="1">
          <mxGeometry x="-0.0037" width="80" relative="1" as="geometry">
            <mxPoint x="420" y="410" as="sourcePoint" />
            <mxPoint x="540" y="410" as="targetPoint" />
            <mxPoint as="offset" />
          </mxGeometry>
        </mxCell>
        <mxCell id="0-jgU2Hm_Rt-sd1UTikU-10" value="success" style="html=1;verticalAlign=bottom;endArrow=open;dashed=1;endSize=8;curved=0;rounded=0;" edge="1" parent="1">
          <mxGeometry relative="1" as="geometry">
            <mxPoint x="544.5" y="440" as="sourcePoint" />
            <mxPoint x="420" y="440" as="targetPoint" />
          </mxGeometry>
        </mxCell>
        <mxCell id="0-jgU2Hm_Rt-sd1UTikU-11" value="return registration &lt;br&gt;status" style="html=1;verticalAlign=bottom;endArrow=open;dashed=1;endSize=8;curved=0;rounded=0;" edge="1" parent="1">
          <mxGeometry relative="1" as="geometry">
            <mxPoint x="404.5" y="450" as="sourcePoint" />
            <mxPoint x="280" y="450" as="targetPoint" />
          </mxGeometry>
        </mxCell>
        <mxCell id="0-jgU2Hm_Rt-sd1UTikU-12" value="viewregistration&lt;br&gt;status" style="html=1;verticalAlign=bottom;endArrow=open;dashed=1;endSize=8;curved=0;rounded=0;" edge="1" parent="1">
          <mxGeometry relative="1" as="geometry">
            <mxPoint x="264.5" y="460" as="sourcePoint" />
            <mxPoint x="140" y="460" as="targetPoint" />
          </mxGeometry>
        </mxCell>
        <mxCell id="0-jgU2Hm_Rt-sd1UTikU-13" value="request required info" style="html=1;verticalAlign=bottom;endArrow=block;curved=0;rounded=0;" edge="1" parent="1" target="yUxICEahl1OaVUL2yHXZ-5">
          <mxGeometry x="-0.7757" width="80" relative="1" as="geometry">
            <mxPoint x="140" y="290" as="sourcePoint" />
            <mxPoint x="265" y="290" as="targetPoint" />
            <mxPoint as="offset" />
          </mxGeometry>
        </mxCell>
        <mxCell id="0-jgU2Hm_Rt-sd1UTikU-14" value="give requested&lt;br&gt;info" style="html=1;verticalAlign=bottom;endArrow=open;dashed=1;endSize=8;curved=0;rounded=0;" edge="1" parent="1">
          <mxGeometry x="-0.7794" relative="1" as="geometry">
            <mxPoint x="670" y="330" as="sourcePoint" />
            <mxPoint x="140" y="330" as="targetPoint" />
            <mxPoint x="1" as="offset" />
          </mxGeometry>
        </mxCell>
        <mxCell id="0-jgU2Hm_Rt-sd1UTikU-15" value="clicks on orders" style="html=1;verticalAlign=bottom;endArrow=block;curved=0;rounded=0;" edge="1" parent="1">
          <mxGeometry x="-0.0037" width="80" relative="1" as="geometry">
            <mxPoint x="140" y="510" as="sourcePoint" />
            <mxPoint x="265" y="510" as="targetPoint" />
            <mxPoint as="offset" />
          </mxGeometry>
        </mxCell>
        <mxCell id="0-jgU2Hm_Rt-sd1UTikU-16" value="request pending &lt;br&gt;orders" style="html=1;verticalAlign=bottom;endArrow=block;curved=0;rounded=0;" edge="1" parent="1">
          <mxGeometry x="-0.0037" width="80" relative="1" as="geometry">
            <mxPoint x="285" y="520" as="sourcePoint" />
            <mxPoint x="405" y="520" as="targetPoint" />
            <mxPoint as="offset" />
          </mxGeometry>
        </mxCell>
        <mxCell id="0-jgU2Hm_Rt-sd1UTikU-17" value="return pending orders" style="html=1;verticalAlign=bottom;endArrow=open;dashed=1;endSize=8;curved=0;rounded=0;" edge="1" parent="1">
          <mxGeometry relative="1" as="geometry">
            <mxPoint x="404.5" y="570" as="sourcePoint" />
            <mxPoint x="280" y="570" as="targetPoint" />
          </mxGeometry>
        </mxCell>
        <mxCell id="0-jgU2Hm_Rt-sd1UTikU-18" value="view pending orders" style="html=1;verticalAlign=bottom;endArrow=open;dashed=1;endSize=8;curved=0;rounded=0;" edge="1" parent="1">
          <mxGeometry relative="1" as="geometry">
            <mxPoint x="264.5" y="580" as="sourcePoint" />
            <mxPoint x="140" y="580" as="targetPoint" />
          </mxGeometry>
        </mxCell>
        <mxCell id="GBZDTn63hAnVbNhfp6Ao-1" value="fetch" style="html=1;verticalAlign=bottom;endArrow=block;curved=0;rounded=0;" edge="1" parent="1">
          <mxGeometry x="-0.0037" width="80" relative="1" as="geometry">
            <mxPoint x="420" y="530" as="sourcePoint" />
            <mxPoint x="540" y="530" as="targetPoint" />
            <mxPoint as="offset" />
          </mxGeometry>
        </mxCell>
        <mxCell id="GBZDTn63hAnVbNhfp6Ao-2" value="query results" style="html=1;verticalAlign=bottom;endArrow=open;dashed=1;endSize=8;curved=0;rounded=0;" edge="1" parent="1">
          <mxGeometry relative="1" as="geometry">
            <mxPoint x="544.5" y="560" as="sourcePoint" />
            <mxPoint x="420" y="560" as="targetPoint" />
          </mxGeometry>
        </mxCell>
        <mxCell id="GBZDTn63hAnVbNhfp6Ao-3" value="selects and clicks &lt;br&gt;on assign courier" style="html=1;verticalAlign=bottom;endArrow=block;curved=0;rounded=0;" edge="1" parent="1">
          <mxGeometry x="-0.008" width="80" relative="1" as="geometry">
            <mxPoint x="140" y="630" as="sourcePoint" />
            <mxPoint x="265" y="630" as="targetPoint" />
            <mxPoint as="offset" />
          </mxGeometry>
        </mxCell>
        <mxCell id="GBZDTn63hAnVbNhfp6Ao-4" value="request available &lt;br&gt;couriers" style="html=1;verticalAlign=bottom;endArrow=block;curved=0;rounded=0;" edge="1" parent="1">
          <mxGeometry x="-0.0037" width="80" relative="1" as="geometry">
            <mxPoint x="285" y="640" as="sourcePoint" />
            <mxPoint x="405" y="640" as="targetPoint" />
            <mxPoint as="offset" />
          </mxGeometry>
        </mxCell>
        <mxCell id="GBZDTn63hAnVbNhfp6Ao-5" value="fetch" style="html=1;verticalAlign=bottom;endArrow=block;curved=0;rounded=0;" edge="1" parent="1">
          <mxGeometry x="-0.0037" width="80" relative="1" as="geometry">
            <mxPoint x="420" y="650" as="sourcePoint" />
            <mxPoint x="540" y="650" as="targetPoint" />
            <mxPoint as="offset" />
          </mxGeometry>
        </mxCell>
        <mxCell id="GBZDTn63hAnVbNhfp6Ao-6" value="query results" style="html=1;verticalAlign=bottom;endArrow=open;dashed=1;endSize=8;curved=0;rounded=0;" edge="1" parent="1">
          <mxGeometry relative="1" as="geometry">
            <mxPoint x="544.5" y="680" as="sourcePoint" />
            <mxPoint x="420" y="680" as="targetPoint" />
          </mxGeometry>
        </mxCell>
        <mxCell id="GBZDTn63hAnVbNhfp6Ao-7" value="return available&lt;br&gt;couriers" style="html=1;verticalAlign=bottom;endArrow=open;dashed=1;endSize=8;curved=0;rounded=0;" edge="1" parent="1">
          <mxGeometry relative="1" as="geometry">
            <mxPoint x="404.5" y="690" as="sourcePoint" />
            <mxPoint x="280" y="690" as="targetPoint" />
          </mxGeometry>
        </mxCell>
        <mxCell id="GBZDTn63hAnVbNhfp6Ao-8" value="offer available&lt;br&gt;couriers" style="html=1;verticalAlign=bottom;endArrow=open;dashed=1;endSize=8;curved=0;rounded=0;" edge="1" parent="1">
          <mxGeometry relative="1" as="geometry">
            <mxPoint x="264.5" y="700" as="sourcePoint" />
            <mxPoint x="140" y="700" as="targetPoint" />
          </mxGeometry>
        </mxCell>
        <mxCell id="GBZDTn63hAnVbNhfp6Ao-9" value="picks a courier &amp;amp;&lt;br&gt;clicks on assign" style="html=1;verticalAlign=bottom;endArrow=block;curved=0;rounded=0;" edge="1" parent="1">
          <mxGeometry x="-0.008" width="80" relative="1" as="geometry">
            <mxPoint x="140" y="750" as="sourcePoint" />
            <mxPoint x="265" y="750" as="targetPoint" />
            <mxPoint as="offset" />
          </mxGeometry>
        </mxCell>
        <mxCell id="GBZDTn63hAnVbNhfp6Ao-10" value="request courier&lt;br&gt;assignment" style="html=1;verticalAlign=bottom;endArrow=block;curved=0;rounded=0;" edge="1" parent="1">
          <mxGeometry x="-0.0037" width="80" relative="1" as="geometry">
            <mxPoint x="280" y="760" as="sourcePoint" />
            <mxPoint x="400" y="760" as="targetPoint" />
            <mxPoint as="offset" />
          </mxGeometry>
        </mxCell>
        <mxCell id="GBZDTn63hAnVbNhfp6Ao-11" value="insert &amp;amp; update" style="html=1;verticalAlign=bottom;endArrow=block;curved=0;rounded=0;" edge="1" parent="1">
          <mxGeometry width="80" relative="1" as="geometry">
            <mxPoint x="420" y="770" as="sourcePoint" />
            <mxPoint x="540" y="770" as="targetPoint" />
            <mxPoint as="offset" />
          </mxGeometry>
        </mxCell>
        <mxCell id="GBZDTn63hAnVbNhfp6Ao-12" value="success" style="html=1;verticalAlign=bottom;endArrow=open;dashed=1;endSize=8;curved=0;rounded=0;" edge="1" parent="1">
          <mxGeometry relative="1" as="geometry">
            <mxPoint x="544.5" y="800" as="sourcePoint" />
            <mxPoint x="420" y="800" as="targetPoint" />
          </mxGeometry>
        </mxCell>
        <mxCell id="GBZDTn63hAnVbNhfp6Ao-13" value="return assignment &lt;br&gt;status &amp;amp; info" style="html=1;verticalAlign=bottom;endArrow=open;dashed=1;endSize=8;curved=0;rounded=0;" edge="1" parent="1">
          <mxGeometry relative="1" as="geometry">
            <mxPoint x="404.5" y="810" as="sourcePoint" />
            <mxPoint x="280" y="810" as="targetPoint" />
          </mxGeometry>
        </mxCell>
        <mxCell id="GBZDTn63hAnVbNhfp6Ao-14" value="view assignment&lt;br style=&quot;border-color: var(--border-color);&quot;&gt;status &amp;amp; info" style="html=1;verticalAlign=bottom;endArrow=open;dashed=1;endSize=8;curved=0;rounded=0;" edge="1" parent="1">
          <mxGeometry relative="1" as="geometry">
            <mxPoint x="264.5" y="820" as="sourcePoint" />
            <mxPoint x="140" y="820" as="targetPoint" />
          </mxGeometry>
        </mxCell>
        <mxCell id="GBZDTn63hAnVbNhfp6Ao-15" value="notify courier" style="html=1;verticalAlign=bottom;endArrow=block;curved=0;rounded=0;" edge="1" parent="1">
          <mxGeometry x="-0.52" width="80" relative="1" as="geometry">
            <mxPoint x="420" y="730" as="sourcePoint" />
            <mxPoint x="670" y="730" as="targetPoint" />
            <mxPoint as="offset" />
          </mxGeometry>
        </mxCell>
        <mxCell id="GBZDTn63hAnVbNhfp6Ao-16" value="clicks on managed &lt;br&gt;orders" style="html=1;verticalAlign=bottom;endArrow=block;curved=0;rounded=0;" edge="1" parent="1">
          <mxGeometry x="-0.008" width="80" relative="1" as="geometry">
            <mxPoint x="140" y="870" as="sourcePoint" />
            <mxPoint x="265" y="870" as="targetPoint" />
            <mxPoint as="offset" />
          </mxGeometry>
        </mxCell>
        <mxCell id="GBZDTn63hAnVbNhfp6Ao-17" value="request&lt;br&gt;managed order list" style="html=1;verticalAlign=bottom;endArrow=block;curved=0;rounded=0;" edge="1" parent="1">
          <mxGeometry x="-0.0037" width="80" relative="1" as="geometry">
            <mxPoint x="280" y="880" as="sourcePoint" />
            <mxPoint x="400" y="880" as="targetPoint" />
            <mxPoint as="offset" />
          </mxGeometry>
        </mxCell>
        <mxCell id="GBZDTn63hAnVbNhfp6Ao-18" value="fetch" style="html=1;verticalAlign=bottom;endArrow=block;curved=0;rounded=0;" edge="1" parent="1">
          <mxGeometry width="80" relative="1" as="geometry">
            <mxPoint x="420" y="890" as="sourcePoint" />
            <mxPoint x="540" y="890" as="targetPoint" />
            <mxPoint as="offset" />
          </mxGeometry>
        </mxCell>
        <mxCell id="GBZDTn63hAnVbNhfp6Ao-19" value="query results" style="html=1;verticalAlign=bottom;endArrow=open;dashed=1;endSize=8;curved=0;rounded=0;" edge="1" parent="1">
          <mxGeometry relative="1" as="geometry">
            <mxPoint x="544.5" y="920" as="sourcePoint" />
            <mxPoint x="420" y="920" as="targetPoint" />
          </mxGeometry>
        </mxCell>
        <mxCell id="GBZDTn63hAnVbNhfp6Ao-20" value="return managed orders" style="html=1;verticalAlign=bottom;endArrow=open;dashed=1;endSize=8;curved=0;rounded=0;" edge="1" parent="1">
          <mxGeometry relative="1" as="geometry">
            <mxPoint x="404.5" y="930" as="sourcePoint" />
            <mxPoint x="280" y="930" as="targetPoint" />
          </mxGeometry>
        </mxCell>
        <mxCell id="GBZDTn63hAnVbNhfp6Ao-21" value="view list of &lt;br&gt;mannaged orders" style="html=1;verticalAlign=bottom;endArrow=open;dashed=1;endSize=8;curved=0;rounded=0;" edge="1" parent="1">
          <mxGeometry relative="1" as="geometry">
            <mxPoint x="264.5" y="940" as="sourcePoint" />
            <mxPoint x="140" y="940" as="targetPoint" />
          </mxGeometry>
        </mxCell>
      </root>
    </mxGraphModel>
  </diagram>
</mxfile>
